# xmcd
#
# Track frame offsets:
#	150
#	36526
#	55771
#	96049
#	122562
#	164737
#	200748
#	239692
#	264289
#	292076
#
# Disc length: 4209 seconds
#
# Revision: 1
# Processed by: cddbd v1.5.2PL0 Copyright (c) Steve Scherf et al.
# Submitted via: audiograbber 1.83.01
#
DISCID=9a106f0a
DTITLE=Grateful Dead - 74-06-16 State Fairgrounds, Des Moines IA
DYEAR=1900
DGENRE=
TTITLE0=Bertha
TTITLE1=Mexicali Blues
TTITLE2=Row Jimmy
TTITLE3=BIODTL
TTITLE4=Scarlet Begonias
TTITLE5=Black-Throated Wind
TTITLE6=Sugaree
TTITLE7=El Paso
TTITLE8=It Must Have Been The Roses
TTITLE9=Jack Straw
EXTD=
EXTT0=
EXTT1=
EXTT2=
EXTT3=
EXTT4=
EXTT5=
EXTT6=
EXTT7=
EXTT8=
EXTT9=
PLAYORDER=
